<svg xmlns="http://www.w3.org/2000/svg" xmlns:xlink="http://www.w3.org/1999/xlink" width="300" height="300" version="1.1" viewBox="0 0 300 300"><title>icon-color</title><desc>Created with Sketch.</desc><defs><rect id="path-1" width="175.861" height="50" x=".638" y="0"/><rect id="path-3" width="176.187" height="50" x=".561" y="0"/></defs><g id="icon-color" fill="none" fill-rule="evenodd" stroke="none" stroke-width="1"><g id="icon-1" transform="translate(54.000000, 29.000000)"><g id="Group" transform="translate(95.500000, 197.000000) scale(1, -1) translate(-95.500000, -197.000000) translate(7.000000, 172.000000)"><mask id="mask-2" fill="#fff"><use xlink:href="#path-1"/></mask><circle id="Oval-9" cx="89.315" cy="100.426" r="89.5" fill-rule="nonzero" stroke="#191051" stroke-width="21" mask="url(#mask-2)"/></g><g id="Group" transform="translate(7.000000, 21.000000)"><mask id="mask-4" fill="#fff"><use xlink:href="#path-3"/></mask><circle id="Oval-9" cx="89.315" cy="100.426" r="89.5" fill-rule="nonzero" stroke="#191051" stroke-width="21" mask="url(#mask-4)"/></g><g id="topp-yokes" fill="#191051" transform="translate(34.000000, 0.000000)"><path id="Oval-1" d="M101.207575,49.8546611 C97.9583112,47.6573969 100.181791,39.1764036 106.173857,30.9118324 C112.165923,22.6472613 119.657501,17.7287373 122.906764,19.9260015 C126.156028,22.1232658 123.932548,30.6042591 117.940482,38.8688303 C111.948417,47.1334014 104.456839,52.0519254 101.207575,49.8546611 Z"/><path id="Oval-1-Copy" d="M23.792425,49.8546611 C20.5431612,52.0519254 13.0515834,47.1334014 7.05951772,38.8688303 C1.06745202,30.6042591 -1.15602822,22.1232658 2.0932356,19.9260015 C5.34249942,17.7287373 12.8340772,22.6472613 18.8261429,30.9118324 C24.8182086,39.1764036 27.0416888,47.6573969 23.792425,49.8546611 Z"/><path id="Oval-1-Copy-4" d="M62.4607224,36.9144756 C58.4941036,36.9144756 55.2785238,28.7355805 55.2785238,18.6464021 C55.2785238,8.55722362 58.4941036,0.378328501 62.4607224,0.378328501 C66.4273411,0.378328501 69.6429209,8.55722362 69.6429209,18.6464021 C69.6429209,28.7355805 66.4273411,36.9144756 62.4607224,36.9144756 Z"/></g><path id="Path-12" fill-rule="nonzero" stroke="#86DCFF" stroke-dasharray="11 9" stroke-width="10" d="M17.1954041,124.331268 L17.1954041,128.169167 C17.4780761,139.696579 23.5612988,145.460285 35.445072,145.460285 C47.3288452,145.460285 54.1599989,145.460285 55.9385331,145.460285"/><g id="bottom" fill="#191051" transform="translate(96.500000, 217.500000) scale(1, -1) translate(-96.500000, -217.500000) translate(34.000000, 192.000000)"><path id="Oval-1" d="M101.207575,49.8546611 C97.9583112,47.6573969 100.181791,39.1764036 106.173857,30.9118324 C112.165923,22.6472613 119.657501,17.7287373 122.906764,19.9260015 C126.156028,22.1232658 123.932548,30.6042591 117.940482,38.8688303 C111.948417,47.1334014 104.456839,52.0519254 101.207575,49.8546611 Z"/><path id="Oval-1-Copy" d="M23.792425,49.8546611 C20.5431612,52.0519254 13.0515834,47.1334014 7.05951772,38.8688303 C1.06745202,30.6042591 -1.15602822,22.1232658 2.0932356,19.9260015 C5.34249942,17.7287373 12.8340772,22.6472613 18.8261429,30.9118324 C24.8182086,39.1764036 27.0416888,47.6573969 23.792425,49.8546611 Z"/><path id="Oval-1-Copy-4" d="M62.4607224,36.9144756 C58.4941036,36.9144756 55.2785238,28.7355805 55.2785238,18.6464021 C55.2785238,8.55722362 58.4941036,0.378328501 62.4607224,0.378328501 C66.4273411,0.378328501 69.6429209,8.55722362 69.6429209,18.6464021 C69.6429209,28.7355805 66.4273411,36.9144756 62.4607224,36.9144756 Z"/></g><g id="Group-2" fill-rule="nonzero" transform="translate(95.500000, 123.500000) scale(1, -1) translate(-95.500000, -123.500000) translate(0.000000, 84.000000)"><rect id="Rectangle" width="90" height="34" x=".517" y="44.926" fill="#D6D2EA" rx="9"/><circle id="Oval" cx="17.517" cy="61.429" r="12" fill="#00AD9D"/><rect id="Rectangle" width="90" height="34" x="100.517" y="44.926" fill="#D6D2EA" rx="9"/><circle id="Oval" cx="117.517" cy="61.429" r="12" fill="#00AD9D"/><rect id="Rectangle" width="129.766" height="34" x="60.751" y=".926" fill="#D6D2EA" rx="9"/><circle id="Oval" cx="77.751" cy="17.505" r="12" fill="#00AD9D"/></g></g></g></svg>