<svg xmlns="http://www.w3.org/2000/svg" id="Layer_1" data-name="Layer 1" viewBox="0 0 300 304.217"><defs><style>.cls-1{fill:#cbdd72}.cls-2{fill:#98ca3f}.cls-3{fill:#6389c6}.cls-4{fill:#e8282b}.cls-5{fill:#f8c519}.cls-6{fill:#f07525}.cls-7{fill:#8162aa}.cls-8{fill:#373737}</style></defs><path d="M40.53139,62.5952h44.7715l22.38575,38.83793L85.30289,140.27106H40.53139L18.14564,101.43313Z" class="cls-1"/><path d="M40.53139,162.3871h44.7715l22.38575,38.56822L85.30289,239.52354H40.53139L18.14564,200.95532Z" class="cls-2"/><path d="M127.91673,211.47393h44.7715L195.074,250.04215l-22.38575,38.56822h-44.7715L105.531,250.04215Z" class="cls-3"/><path d="M127.91673,111.682h44.7715L195.074,150.52l-22.38575,38.83792h-44.7715L105.531,150.52Z" class="cls-4"/><path d="M127.91673,12.42954h44.7715L195.074,50.99776,172.68823,89.566h-44.7715L105.531,50.99776Z" class="cls-5"/><path d="M214.6278,62.5952h45.58062l22.79032,38.83793-22.79032,38.83793H214.6278l-22.79031-38.83793Z" class="cls-6"/><path d="M214.6278,162.3871h45.58062l22.79032,38.56822-22.79032,38.56822H214.6278l-22.79031-38.56822Z" class="cls-7"/><path d="M176.67452,104.66962h-53.4863L96.36091,150.94987l26.82731,45.95983h53.4863l27.03011-45.97708Zm-6.99407,79.91228H130.48651l-19.93464-33.56515,19.83322-34.01932h39.29536L189.497,151.01675Z" class="cls-8"/><path d="M176.67452,203.92211h-53.4863L96.36091,250.16028l26.82731,46.00191h53.4863l27.03011-46.00191Zm-6.99407,79.88853H130.48651l-19.93464-33.56621,19.83322-34.0382h39.29536l19.81652,34.0382Z" class="cls-8"/><path d="M176.67452,5.41714h-53.4863l-26.82731,46.297,26.82731,45.94311h53.4863l27.03011-45.94311ZM169.68045,85.372H130.48651L110.55187,51.71411l19.83322-33.99495h39.29536l19.74909,33.995Z" class="cls-8"/><path d="M264.05986,154.29587h-53.503l-26.81058,46.2797L210.55683,246.536h53.503L291.09,200.57557Zm-7.07875,79.89986h-39.194L197.95391,200.643l19.83324-34.07433h39.194l19.83377,34.00691Z" class="cls-8"/><path d="M264.05986,55.04338h-53.503l-26.81058,46.53377,26.81058,46.24573h53.503L291.09,101.57715Zm-7.07875,80.39667h-39.194l-19.83324-33.76149,19.83324-34.21837h39.194l19.83377,34.21837Z" class="cls-8"/><path d="M89.4251,154.29587H36.20743L9.515,200.57557,36.20743,246.536H89.4251l26.89419-45.96038Zm-7.02642,79.89986H43.40216L23.66818,200.643l19.734-34.07433H82.39868l19.734,34.07433Z" class="cls-8"/><path d="M89.4251,55.04338H36.20743L9.515,101.57715l26.69244,46.24573H89.4251l26.89419-46.24573Zm-7.02642,80.39667H43.40216l-19.734-33.79493,19.734-34.21892H82.39868l19.734,34.21892Z" class="cls-8"/></svg>